<svg id="visual" viewBox="0 0 900 600" width="900" height="600" xmlns="http://www.w3.org/2000/svg" xmlns:xlink="http://www.w3.org/1999/xlink" version="1.1"><g stroke-width="1" stroke-linejoin="bevel"><path d="M432 274L382 376L490 324Z" fill="#081a28" stroke="#081a28"></path><path d="M382 376L485 413L490 324Z" fill="#1d4e6b" stroke="#1d4e6b"></path><path d="M485 413L568 339L490 324Z" fill="#0c2435" stroke="#0c2435"></path><path d="M507 177L406 188L432 274Z" fill="#1d4e6b" stroke="#1d4e6b"></path><path d="M279 320L304 401L382 376Z" fill="#15384f" stroke="#15384f"></path><path d="M382 376L466 480L485 413Z" fill="#246688" stroke="#246688"></path><path d="M427 530L466 480L338 523Z" fill="#15384f" stroke="#15384f"></path><path d="M485 413L594 418L568 339Z" fill="#277297" stroke="#277297"></path><path d="M507 177L432 274L490 324Z" fill="#1d4e6b" stroke="#1d4e6b"></path><path d="M432 274L279 320L382 376Z" fill="#277297" stroke="#277297"></path><path d="M313 231L279 320L432 274Z" fill="#19435d" stroke="#19435d"></path><path d="M406 188L313 231L432 274Z" fill="#15384f" stroke="#15384f"></path><path d="M601 224L507 177L490 324Z" fill="#112e42" stroke="#112e42"></path><path d="M466 480L594 418L485 413Z" fill="#00101c" stroke="#00101c"></path><path d="M338 523L466 480L382 376Z" fill="#277297" stroke="#277297"></path><path d="M466 480L600 522L594 418Z" fill="#277297" stroke="#277297"></path><path d="M704 310L601 224L568 339Z" fill="#112e42" stroke="#112e42"></path><path d="M568 339L601 224L490 324Z" fill="#19435d" stroke="#19435d"></path><path d="M177 421L338 523L304 401Z" fill="#246688" stroke="#246688"></path><path d="M304 401L338 523L382 376Z" fill="#112e42" stroke="#112e42"></path><path d="M507 177L379 116L406 188Z" fill="#205a7a" stroke="#205a7a"></path><path d="M406 188L379 116L313 231Z" fill="#112e42" stroke="#112e42"></path><path d="M567 600L600 522L466 480Z" fill="#15384f" stroke="#15384f"></path><path d="M594 418L704 310L568 339Z" fill="#277297" stroke="#277297"></path><path d="M605 133L512 86L507 177Z" fill="#19435d" stroke="#19435d"></path><path d="M507 177L512 86L379 116Z" fill="#1d4e6b" stroke="#1d4e6b"></path><path d="M338 523L402 600L427 530Z" fill="#081a28" stroke="#081a28"></path><path d="M427 530L469 600L466 480Z" fill="#112e42" stroke="#112e42"></path><path d="M313 231L190 220L279 320Z" fill="#0c2435" stroke="#0c2435"></path><path d="M279 320L177 421L304 401Z" fill="#00101c" stroke="#00101c"></path><path d="M269 96L190 220L313 231Z" fill="#297ea6" stroke="#297ea6"></path><path d="M163 295L177 421L279 320Z" fill="#1d4e6b" stroke="#1d4e6b"></path><path d="M338 523L268 600L402 600Z" fill="#19435d" stroke="#19435d"></path><path d="M402 600L469 600L427 530Z" fill="#19435d" stroke="#19435d"></path><path d="M675 177L605 133L601 224Z" fill="#1d4e6b" stroke="#1d4e6b"></path><path d="M601 224L605 133L507 177Z" fill="#19435d" stroke="#19435d"></path><path d="M190 220L163 295L279 320Z" fill="#0c2435" stroke="#0c2435"></path><path d="M708 414L704 310L594 418Z" fill="#1d4e6b" stroke="#1d4e6b"></path><path d="M370 0L269 96L379 116Z" fill="#277297" stroke="#277297"></path><path d="M379 116L269 96L313 231Z" fill="#112e42" stroke="#112e42"></path><path d="M600 522L708 414L594 418Z" fill="#00101c" stroke="#00101c"></path><path d="M704 310L675 177L601 224Z" fill="#112e42" stroke="#112e42"></path><path d="M469 600L567 600L466 480Z" fill="#205a7a" stroke="#205a7a"></path><path d="M600 522L724 520L708 414Z" fill="#19435d" stroke="#19435d"></path><path d="M169 538L268 600L338 523Z" fill="#00101c" stroke="#00101c"></path><path d="M95 236L163 295L190 220Z" fill="#081a28" stroke="#081a28"></path><path d="M95 236L107 295L163 295Z" fill="#246688" stroke="#246688"></path><path d="M163 295L107 295L177 421Z" fill="#0c2435" stroke="#0c2435"></path><path d="M177 421L169 538L338 523Z" fill="#1d4e6b" stroke="#1d4e6b"></path><path d="M100 523L169 538L177 421Z" fill="#112e42" stroke="#112e42"></path><path d="M169 538L231 600L268 600Z" fill="#081a28" stroke="#081a28"></path><path d="M830 68L667 105L675 177Z" fill="#00101c" stroke="#00101c"></path><path d="M675 177L667 105L605 133Z" fill="#0c2435" stroke="#0c2435"></path><path d="M605 133L630 0L512 86Z" fill="#277297" stroke="#277297"></path><path d="M708 414L761 321L704 310Z" fill="#246688" stroke="#246688"></path><path d="M704 310L798 234L675 177Z" fill="#246688" stroke="#246688"></path><path d="M284 0L209 82L269 96Z" fill="#246688" stroke="#246688"></path><path d="M269 96L209 82L190 220Z" fill="#19435d" stroke="#19435d"></path><path d="M630 0L486 0L512 86Z" fill="#19435d" stroke="#19435d"></path><path d="M512 86L486 0L379 116Z" fill="#112e42" stroke="#112e42"></path><path d="M486 0L370 0L379 116Z" fill="#246688" stroke="#246688"></path><path d="M666 600L724 520L600 522Z" fill="#112e42" stroke="#112e42"></path><path d="M708 414L792 378L761 321Z" fill="#112e42" stroke="#112e42"></path><path d="M123 114L95 236L190 220Z" fill="#0c2435" stroke="#0c2435"></path><path d="M567 600L666 600L600 522Z" fill="#1d4e6b" stroke="#1d4e6b"></path><path d="M107 295L81 425L177 421Z" fill="#205a7a" stroke="#205a7a"></path><path d="M0 370L81 425L107 295Z" fill="#246688" stroke="#246688"></path><path d="M776 471L792 378L708 414Z" fill="#1d4e6b" stroke="#1d4e6b"></path><path d="M761 321L798 234L704 310Z" fill="#1d4e6b" stroke="#1d4e6b"></path><path d="M370 0L284 0L269 96Z" fill="#0c2435" stroke="#0c2435"></path><path d="M807 600L776 471L724 520Z" fill="#1d4e6b" stroke="#1d4e6b"></path><path d="M724 520L776 471L708 414Z" fill="#112e42" stroke="#112e42"></path><path d="M209 82L123 114L190 220Z" fill="#00101c" stroke="#00101c"></path><path d="M137 0L123 114L209 82Z" fill="#277297" stroke="#277297"></path><path d="M81 425L100 523L177 421Z" fill="#081a28" stroke="#081a28"></path><path d="M169 538L86 600L231 600Z" fill="#00101c" stroke="#00101c"></path><path d="M900 337L798 234L761 321Z" fill="#1d4e6b" stroke="#1d4e6b"></path><path d="M707 0L630 0L667 105Z" fill="#0c2435" stroke="#0c2435"></path><path d="M667 105L630 0L605 133Z" fill="#19435d" stroke="#19435d"></path><path d="M284 0L191 0L209 82Z" fill="#00101c" stroke="#00101c"></path><path d="M0 264L0 370L107 295Z" fill="#297ea6" stroke="#297ea6"></path><path d="M81 425L0 492L100 523Z" fill="#112e42" stroke="#112e42"></path><path d="M0 264L107 295L95 236Z" fill="#0c2435" stroke="#0c2435"></path><path d="M0 600L86 600L100 523Z" fill="#246688" stroke="#246688"></path><path d="M100 523L86 600L169 538Z" fill="#00101c" stroke="#00101c"></path><path d="M0 170L95 236L123 114Z" fill="#112e42" stroke="#112e42"></path><path d="M0 170L0 264L95 236Z" fill="#297ea6" stroke="#297ea6"></path><path d="M830 68L707 0L667 105Z" fill="#277297" stroke="#277297"></path><path d="M191 0L137 0L209 82Z" fill="#112e42" stroke="#112e42"></path><path d="M0 370L0 492L81 425Z" fill="#0c2435" stroke="#0c2435"></path><path d="M0 84L0 170L123 114Z" fill="#246688" stroke="#246688"></path><path d="M666 600L807 600L724 520Z" fill="#081a28" stroke="#081a28"></path><path d="M900 416L900 337L792 378Z" fill="#1d4e6b" stroke="#1d4e6b"></path><path d="M792 378L900 337L761 321Z" fill="#081a28" stroke="#081a28"></path><path d="M900 416L792 378L776 471Z" fill="#1d4e6b" stroke="#1d4e6b"></path><path d="M798 234L830 68L675 177Z" fill="#297ea6" stroke="#297ea6"></path><path d="M900 525L900 416L776 471Z" fill="#0c2435" stroke="#0c2435"></path><path d="M900 119L830 68L798 234Z" fill="#19435d" stroke="#19435d"></path><path d="M900 337L900 232L798 234Z" fill="#1d4e6b" stroke="#1d4e6b"></path><path d="M137 0L0 84L123 114Z" fill="#205a7a" stroke="#205a7a"></path><path d="M0 492L0 600L100 523Z" fill="#277297" stroke="#277297"></path><path d="M807 600L900 525L776 471Z" fill="#112e42" stroke="#112e42"></path><path d="M900 232L900 119L798 234Z" fill="#112e42" stroke="#112e42"></path><path d="M900 0L838 0L830 68Z" fill="#277297" stroke="#277297"></path><path d="M830 68L838 0L707 0Z" fill="#081a28" stroke="#081a28"></path><path d="M807 600L900 600L900 525Z" fill="#00101c" stroke="#00101c"></path><path d="M137 0L0 0L0 84Z" fill="#081a28" stroke="#081a28"></path><path d="M900 119L900 0L830 68Z" fill="#112e42" stroke="#112e42"></path></g></svg>