<svg xmlns="http://www.w3.org/2000/svg" xmlns:xlink="http://www.w3.org/1999/xlink" id="visual" width="900" height="600" version="1.1" viewBox="0 0 900 600"><g stroke-linejoin="bevel" stroke-width="1"><path fill="#081a28" stroke="#081a28" d="M432 274L382 376L490 324Z"/><path fill="#1d4e6b" stroke="#1d4e6b" d="M382 376L485 413L490 324Z"/><path fill="#0c2435" stroke="#0c2435" d="M485 413L568 339L490 324Z"/><path fill="#1d4e6b" stroke="#1d4e6b" d="M507 177L406 188L432 274Z"/><path fill="#15384f" stroke="#15384f" d="M279 320L304 401L382 376Z"/><path fill="#246688" stroke="#246688" d="M382 376L466 480L485 413Z"/><path fill="#15384f" stroke="#15384f" d="M427 530L466 480L338 523Z"/><path fill="#277297" stroke="#277297" d="M485 413L594 418L568 339Z"/><path fill="#1d4e6b" stroke="#1d4e6b" d="M507 177L432 274L490 324Z"/><path fill="#277297" stroke="#277297" d="M432 274L279 320L382 376Z"/><path fill="#19435d" stroke="#19435d" d="M313 231L279 320L432 274Z"/><path fill="#15384f" stroke="#15384f" d="M406 188L313 231L432 274Z"/><path fill="#112e42" stroke="#112e42" d="M601 224L507 177L490 324Z"/><path fill="#00101c" stroke="#00101c" d="M466 480L594 418L485 413Z"/><path fill="#277297" stroke="#277297" d="M338 523L466 480L382 376Z"/><path fill="#277297" stroke="#277297" d="M466 480L600 522L594 418Z"/><path fill="#112e42" stroke="#112e42" d="M704 310L601 224L568 339Z"/><path fill="#19435d" stroke="#19435d" d="M568 339L601 224L490 324Z"/><path fill="#246688" stroke="#246688" d="M177 421L338 523L304 401Z"/><path fill="#112e42" stroke="#112e42" d="M304 401L338 523L382 376Z"/><path fill="#205a7a" stroke="#205a7a" d="M507 177L379 116L406 188Z"/><path fill="#112e42" stroke="#112e42" d="M406 188L379 116L313 231Z"/><path fill="#15384f" stroke="#15384f" d="M567 600L600 522L466 480Z"/><path fill="#277297" stroke="#277297" d="M594 418L704 310L568 339Z"/><path fill="#19435d" stroke="#19435d" d="M605 133L512 86L507 177Z"/><path fill="#1d4e6b" stroke="#1d4e6b" d="M507 177L512 86L379 116Z"/><path fill="#081a28" stroke="#081a28" d="M338 523L402 600L427 530Z"/><path fill="#112e42" stroke="#112e42" d="M427 530L469 600L466 480Z"/><path fill="#0c2435" stroke="#0c2435" d="M313 231L190 220L279 320Z"/><path fill="#00101c" stroke="#00101c" d="M279 320L177 421L304 401Z"/><path fill="#297ea6" stroke="#297ea6" d="M269 96L190 220L313 231Z"/><path fill="#1d4e6b" stroke="#1d4e6b" d="M163 295L177 421L279 320Z"/><path fill="#19435d" stroke="#19435d" d="M338 523L268 600L402 600Z"/><path fill="#19435d" stroke="#19435d" d="M402 600L469 600L427 530Z"/><path fill="#1d4e6b" stroke="#1d4e6b" d="M675 177L605 133L601 224Z"/><path fill="#19435d" stroke="#19435d" d="M601 224L605 133L507 177Z"/><path fill="#0c2435" stroke="#0c2435" d="M190 220L163 295L279 320Z"/><path fill="#1d4e6b" stroke="#1d4e6b" d="M708 414L704 310L594 418Z"/><path fill="#277297" stroke="#277297" d="M370 0L269 96L379 116Z"/><path fill="#112e42" stroke="#112e42" d="M379 116L269 96L313 231Z"/><path fill="#00101c" stroke="#00101c" d="M600 522L708 414L594 418Z"/><path fill="#112e42" stroke="#112e42" d="M704 310L675 177L601 224Z"/><path fill="#205a7a" stroke="#205a7a" d="M469 600L567 600L466 480Z"/><path fill="#19435d" stroke="#19435d" d="M600 522L724 520L708 414Z"/><path fill="#00101c" stroke="#00101c" d="M169 538L268 600L338 523Z"/><path fill="#081a28" stroke="#081a28" d="M95 236L163 295L190 220Z"/><path fill="#246688" stroke="#246688" d="M95 236L107 295L163 295Z"/><path fill="#0c2435" stroke="#0c2435" d="M163 295L107 295L177 421Z"/><path fill="#1d4e6b" stroke="#1d4e6b" d="M177 421L169 538L338 523Z"/><path fill="#112e42" stroke="#112e42" d="M100 523L169 538L177 421Z"/><path fill="#081a28" stroke="#081a28" d="M169 538L231 600L268 600Z"/><path fill="#00101c" stroke="#00101c" d="M830 68L667 105L675 177Z"/><path fill="#0c2435" stroke="#0c2435" d="M675 177L667 105L605 133Z"/><path fill="#277297" stroke="#277297" d="M605 133L630 0L512 86Z"/><path fill="#246688" stroke="#246688" d="M708 414L761 321L704 310Z"/><path fill="#246688" stroke="#246688" d="M704 310L798 234L675 177Z"/><path fill="#246688" stroke="#246688" d="M284 0L209 82L269 96Z"/><path fill="#19435d" stroke="#19435d" d="M269 96L209 82L190 220Z"/><path fill="#19435d" stroke="#19435d" d="M630 0L486 0L512 86Z"/><path fill="#112e42" stroke="#112e42" d="M512 86L486 0L379 116Z"/><path fill="#246688" stroke="#246688" d="M486 0L370 0L379 116Z"/><path fill="#112e42" stroke="#112e42" d="M666 600L724 520L600 522Z"/><path fill="#112e42" stroke="#112e42" d="M708 414L792 378L761 321Z"/><path fill="#0c2435" stroke="#0c2435" d="M123 114L95 236L190 220Z"/><path fill="#1d4e6b" stroke="#1d4e6b" d="M567 600L666 600L600 522Z"/><path fill="#205a7a" stroke="#205a7a" d="M107 295L81 425L177 421Z"/><path fill="#246688" stroke="#246688" d="M0 370L81 425L107 295Z"/><path fill="#1d4e6b" stroke="#1d4e6b" d="M776 471L792 378L708 414Z"/><path fill="#1d4e6b" stroke="#1d4e6b" d="M761 321L798 234L704 310Z"/><path fill="#0c2435" stroke="#0c2435" d="M370 0L284 0L269 96Z"/><path fill="#1d4e6b" stroke="#1d4e6b" d="M807 600L776 471L724 520Z"/><path fill="#112e42" stroke="#112e42" d="M724 520L776 471L708 414Z"/><path fill="#00101c" stroke="#00101c" d="M209 82L123 114L190 220Z"/><path fill="#277297" stroke="#277297" d="M137 0L123 114L209 82Z"/><path fill="#081a28" stroke="#081a28" d="M81 425L100 523L177 421Z"/><path fill="#00101c" stroke="#00101c" d="M169 538L86 600L231 600Z"/><path fill="#1d4e6b" stroke="#1d4e6b" d="M900 337L798 234L761 321Z"/><path fill="#0c2435" stroke="#0c2435" d="M707 0L630 0L667 105Z"/><path fill="#19435d" stroke="#19435d" d="M667 105L630 0L605 133Z"/><path fill="#00101c" stroke="#00101c" d="M284 0L191 0L209 82Z"/><path fill="#297ea6" stroke="#297ea6" d="M0 264L0 370L107 295Z"/><path fill="#112e42" stroke="#112e42" d="M81 425L0 492L100 523Z"/><path fill="#0c2435" stroke="#0c2435" d="M0 264L107 295L95 236Z"/><path fill="#246688" stroke="#246688" d="M0 600L86 600L100 523Z"/><path fill="#00101c" stroke="#00101c" d="M100 523L86 600L169 538Z"/><path fill="#112e42" stroke="#112e42" d="M0 170L95 236L123 114Z"/><path fill="#297ea6" stroke="#297ea6" d="M0 170L0 264L95 236Z"/><path fill="#277297" stroke="#277297" d="M830 68L707 0L667 105Z"/><path fill="#112e42" stroke="#112e42" d="M191 0L137 0L209 82Z"/><path fill="#0c2435" stroke="#0c2435" d="M0 370L0 492L81 425Z"/><path fill="#246688" stroke="#246688" d="M0 84L0 170L123 114Z"/><path fill="#081a28" stroke="#081a28" d="M666 600L807 600L724 520Z"/><path fill="#1d4e6b" stroke="#1d4e6b" d="M900 416L900 337L792 378Z"/><path fill="#081a28" stroke="#081a28" d="M792 378L900 337L761 321Z"/><path fill="#1d4e6b" stroke="#1d4e6b" d="M900 416L792 378L776 471Z"/><path fill="#297ea6" stroke="#297ea6" d="M798 234L830 68L675 177Z"/><path fill="#0c2435" stroke="#0c2435" d="M900 525L900 416L776 471Z"/><path fill="#19435d" stroke="#19435d" d="M900 119L830 68L798 234Z"/><path fill="#1d4e6b" stroke="#1d4e6b" d="M900 337L900 232L798 234Z"/><path fill="#205a7a" stroke="#205a7a" d="M137 0L0 84L123 114Z"/><path fill="#277297" stroke="#277297" d="M0 492L0 600L100 523Z"/><path fill="#112e42" stroke="#112e42" d="M807 600L900 525L776 471Z"/><path fill="#112e42" stroke="#112e42" d="M900 232L900 119L798 234Z"/><path fill="#277297" stroke="#277297" d="M900 0L838 0L830 68Z"/><path fill="#081a28" stroke="#081a28" d="M830 68L838 0L707 0Z"/><path fill="#00101c" stroke="#00101c" d="M807 600L900 600L900 525Z"/><path fill="#081a28" stroke="#081a28" d="M137 0L0 0L0 84Z"/><path fill="#112e42" stroke="#112e42" d="M900 119L900 0L830 68Z"/></g></svg>